<?xml version="1.0" encoding="UTF-8" standalone="no"?>
<!-- Created with Inkscape (http://www.inkscape.org/) -->

<svg
   width="210mm"
   height="297mm"
   viewBox="0 0 210 297"
   version="1.1"
   id="svg5"
   inkscape:version="1.1.1 (3bf5ae0d25, 2021-09-20)"
   sodipodi:docname="bumping_4.svg"
   xmlns:inkscape="http://www.inkscape.org/namespaces/inkscape"
   xmlns:sodipodi="http://sodipodi.sourceforge.net/DTD/sodipodi-0.dtd"
   xmlns="http://www.w3.org/2000/svg"
   xmlns:svg="http://www.w3.org/2000/svg">
  <sodipodi:namedview
     id="namedview7"
     pagecolor="#505050"
     bordercolor="#eeeeee"
     borderopacity="1"
     inkscape:pageshadow="0"
     inkscape:pageopacity="0"
     inkscape:pagecheckerboard="0"
     inkscape:document-units="mm"
     showgrid="false"
     inkscape:zoom="0.73406285"
     inkscape:cx="397.10496"
     inkscape:cy="343.976"
     inkscape:window-width="1920"
     inkscape:window-height="1009"
     inkscape:window-x="-8"
     inkscape:window-y="-8"
     inkscape:window-maximized="1"
     inkscape:current-layer="layer1" />
  <defs
     id="defs2" />
  <g
     inkscape:label="Layer 1"
     inkscape:groupmode="layer"
     id="layer1">
    <path
       id="path846"
       style="fill:#0000ff;stroke-width:16.8212"
       d="M 188.97656 -94.488281 C 175.93046 -94.488281 163.50167 -91.843863 152.19727 -87.0625 C 140.89285 -82.281137 130.71357 -75.361999 122.16406 -66.8125 C 113.61456 -58.262997 106.69543 -48.083708 101.91406 -36.779297 C 97.132699 -25.474886 94.488281 -13.046097 94.488281 0 C 94.488281 8.1531492 95.521265 16.064206 97.462891 23.611328 C 81.961348 32.208307 67.788981 42.910237 55.349609 55.349609 C 42.910237 67.788981 32.208307 81.961348 23.611328 97.462891 C 16.064206 95.521265 8.1531492 94.488281 0 94.488281 C -13.046097 94.488281 -25.474886 97.132699 -36.779297 101.91406 C -48.083708 106.69543 -58.262997 113.61456 -66.8125 122.16406 C -75.361999 130.71357 -82.281137 140.89285 -87.0625 152.19727 C -91.843863 163.50167 -94.488281 175.93046 -94.488281 188.97656 C -94.488281 202.02266 -91.843863 214.45145 -87.0625 225.75586 C -82.281137 237.06027 -75.361999 247.23956 -66.8125 255.78906 C -58.262997 264.33856 -48.083708 271.2577 -36.779297 276.03906 C -25.474886 280.82043 -13.046097 283.46484 0 283.46484 C 8.1531492 283.46484 16.064206 282.43186 23.611328 280.49023 C 32.208307 295.99178 42.910237 310.16414 55.349609 322.60352 C 67.788981 335.04289 81.961348 345.74482 97.462891 354.3418 C 95.521569 361.88837 94.488281 369.80064 94.488281 377.95312 C 94.488281 390.99922 97.132699 403.42801 101.91406 414.73242 C 106.69543 426.03684 113.61456 436.21611 122.16406 444.76562 C 130.71357 453.31511 140.89285 460.23426 152.19727 465.01562 C 163.50167 469.79695 175.93046 472.44141 188.97656 472.44141 C 202.02266 472.44141 214.45145 469.79695 225.75586 465.01562 C 237.06027 460.23426 247.23956 453.31511 255.78906 444.76562 C 264.33856 436.21611 271.2577 426.03684 276.03906 414.73242 C 280.82043 403.42801 283.46484 390.99922 283.46484 377.95312 C 283.46484 369.80064 282.43156 361.88837 280.49023 354.3418 C 295.99178 345.74482 310.16414 335.04289 322.60352 322.60352 C 335.04289 310.16414 345.74482 295.99178 354.3418 280.49023 C 361.88837 282.43156 369.80064 283.46484 377.95312 283.46484 C 390.99922 283.46484 403.42801 280.82043 414.73242 276.03906 C 426.03684 271.2577 436.21611 264.33856 444.76562 255.78906 C 453.31511 247.23956 460.23426 237.06027 465.01562 225.75586 C 469.79695 214.45145 472.44141 202.02266 472.44141 188.97656 C 472.44141 175.93046 469.79695 163.50167 465.01562 152.19727 C 460.23426 140.89285 453.31511 130.71357 444.76562 122.16406 C 436.21611 113.61456 426.03684 106.69543 414.73242 101.91406 C 403.42801 97.132699 390.99922 94.488281 377.95312 94.488281 C 369.80064 94.488281 361.88837 95.521569 354.3418 97.462891 C 345.74482 81.961348 335.04289 67.788981 322.60352 55.349609 C 310.16414 42.910237 295.99178 32.208307 280.49023 23.611328 C 282.43186 16.064206 283.46484 8.1531492 283.46484 0 C 283.46484 -13.046097 280.82043 -25.474886 276.03906 -36.779297 C 271.2577 -48.083708 264.33856 -58.262997 255.78906 -66.8125 C 247.23956 -75.361999 237.06027 -82.281137 225.75586 -87.0625 C 214.45145 -91.843863 202.02266 -94.488281 188.97656 -94.488281 z "
       transform="scale(0.26458333)" />
  </g>
</svg>
