<?xml version="1.0" encoding="UTF-8" standalone="no"?>
<!-- Created with Inkscape (http://www.inkscape.org/) -->

<svg
   width="210mm"
   height="297mm"
   viewBox="0 0 210 297"
   version="1.1"
   id="svg5"
   sodipodi:docname="cinquefoil.svg"
   inkscape:version="1.1.1 (3bf5ae0d25, 2021-09-20)"
   xmlns:inkscape="http://www.inkscape.org/namespaces/inkscape"
   xmlns:sodipodi="http://sodipodi.sourceforge.net/DTD/sodipodi-0.dtd"
   xmlns="http://www.w3.org/2000/svg"
   xmlns:svg="http://www.w3.org/2000/svg">
  <sodipodi:namedview
     id="namedview7"
     pagecolor="#505050"
     bordercolor="#eeeeee"
     borderopacity="1"
     inkscape:pageshadow="0"
     inkscape:pageopacity="0"
     inkscape:pagecheckerboard="0"
     inkscape:document-units="mm"
     showgrid="false"
     inkscape:zoom="0.36703143"
     inkscape:cx="570.79581"
     inkscape:cy="279.26764"
     inkscape:window-width="1920"
     inkscape:window-height="1009"
     inkscape:window-x="-8"
     inkscape:window-y="-8"
     inkscape:window-maximized="1"
     inkscape:current-layer="layer1" />
  <defs
     id="defs2" />
  <g
     inkscape:label="Layer 1"
     inkscape:groupmode="layer"
     id="layer1">
    <path
       id="path1325"
       style="fill:#800000;stroke-width:1"
       inkscape:transform-center-x="0.064311307"
       inkscape:transform-center-y="-3.0407777"
       d="m 146.93786,16.739177 c 2.70831,-7.5400342 0.52891,-12.7986379 5.13281,-12.8227525 4.60391,-0.024115 2.47971,5.2570303 5.26686,12.7682815 2.78715,7.511247 8.51602,24.833653 10.75687,32.525573 2.24085,7.691917 7.09495,10.6652 3.38449,13.390817 -3.71046,2.725615 -5.09613,-2.795487 -11.76598,-7.233973 -6.66985,-4.438487 -21.48646,-15.08526 -27.82055,-19.991013 -6.33409,-4.905754 -12.00878,-4.458021 -10.60903,-8.844046 1.39975,-4.386027 5.766,-0.733835 13.7709,-1.063464 8.0049,-0.329628 26.2498,-0.425188 34.25772,-0.17943 8.00791,0.245757 12.33567,-3.451974 13.78129,0.91915 1.44562,4.371124 -4.23346,3.982859 -10.51581,8.954694 -6.28235,4.971835 -20.98661,15.773238 -27.60961,20.281348 -6.62299,4.508113 -7.95074,10.043429 -11.68956,7.35683 -3.73881,-2.686597 1.08388,-5.710567 3.24403,-13.425538 2.16016,-7.714975 7.70726,-25.096441 10.41557,-32.636474 z"
       sodipodi:nodetypes="zzzzzzzzzzzzzzzz" />
    <path
       id="path8247"
       style="fill:#00ffff;stroke-width:1.78531"
       d="m 42.787042,85.461885 c 0.446306,2.520006 -0.163589,5.208157 -1.786713,7.442197 -1.623125,2.234039 -3.998111,3.59868 -6.525825,3.99903 C 31.946788,97.303464 22.844772,92.073978 20.610734,90.450854 16.142657,87.204606 15.152167,80.950909 18.398416,76.482832 20.021542,74.248793 22.375995,72.720565 24.924241,72.4838 38.159092,71.25411 48.186279,66.482514 57.01085,58.316299 67.399443,48.702746 70.62343,38.48656 76.679373,25.550404 c 1.085063,-2.317813 3.193625,-4.117333 5.819895,-4.97066 2.62627,-0.853327 5.349791,-0.561363 7.630075,0.6005 2.280285,1.161863 6.570156,10.742636 7.423483,13.368906 1.706653,5.25254 -1.167855,10.894082 -6.420395,12.600735 -2.626271,0.853327 -5.429333,0.705776 -7.630075,-0.600499 C 72.072344,39.764978 61.155504,37.731446 49.216296,39.151099 35.161041,40.822365 26.54786,47.192422 14.044815,54.098396 11.804605,55.335761 9.0410118,55.552223 6.4147406,54.698897 3.7884701,53.845569 1.7567083,52.00852 0.59484628,49.728236 -0.5670183,47.447951 1.5938408,37.17542 2.4471678,34.54915 4.1538213,29.296611 10.598996,24.856283 15.047902,28.128755 c 11.7919,8.673742 15.915167,23.734943 29.209299,31.108839 12.37769,6.865571 23.065723,6.818606 37.240128,8.580659 2.539674,0.315713 4.9027,1.764992 6.525825,3.999031 1.623124,2.234039 2.187064,4.914483 1.786713,7.442197 -0.40035,2.527716 -8.186564,9.568247 -10.420603,11.191371 C 74.921187,93.6971 68.66749,92.706613 65.421242,88.238535 63.798118,86.004495 63.072254,83.293029 63.634528,80.796338 66.554815,67.829253 65.115332,56.818327 60.075743,45.902162 54.142963,33.051272 45.423055,26.828105 34.991432,17.071068 33.122363,15.322867 32.0625,12.761424 32.0625,10 c 0,-2.7614237 1.119288,-5.2614237 2.928932,-7.0710678 C 36.801076,1.1192881 47.238576,0 50,0 c 5.522847,0 10,4.4771525 10,10 0,2.761424 -1.039322,5.345091 -2.928932,7.071068 -10.42897,9.525859 -13.586048,17.517626 -16.7124,30.494122 -3.192929,13.252836 0.124691,24.889252 2.428374,37.896695 z"
       sodipodi:nodetypes="sssssssssssssssssssssssssssssssssss" />
  </g>
</svg>
