<?xml version="1.0" encoding="UTF-8" standalone="no"?>
<!-- Created with Inkscape (http://www.inkscape.org/) -->

<svg
   width="210mm"
   height="297mm"
   viewBox="0 0 210 297"
   version="1.1"
   id="svg2294"
   inkscape:version="1.1.1 (3bf5ae0d25, 2021-09-20)"
   sodipodi:docname="CopperBlack_M2.svg"
   xmlns:inkscape="http://www.inkscape.org/namespaces/inkscape"
   xmlns:sodipodi="http://sodipodi.sourceforge.net/DTD/sodipodi-0.dtd"
   xmlns="http://www.w3.org/2000/svg"
   xmlns:svg="http://www.w3.org/2000/svg">
  <sodipodi:namedview
     id="namedview2296"
     pagecolor="#505050"
     bordercolor="#eeeeee"
     borderopacity="1"
     inkscape:pageshadow="0"
     inkscape:pageopacity="0"
     inkscape:pagecheckerboard="0"
     inkscape:document-units="mm"
     showgrid="false"
     inkscape:zoom="2.9362514"
     inkscape:cx="153.42692"
     inkscape:cy="32.524463"
     inkscape:window-width="1920"
     inkscape:window-height="1009"
     inkscape:window-x="-8"
     inkscape:window-y="-8"
     inkscape:window-maximized="1"
     inkscape:current-layer="layer1" />
  <defs
     id="defs2291" />
  <g
     inkscape:label="Layer 1"
     inkscape:groupmode="layer"
     id="layer1">
    <g
       aria-label="M"
       id="text2556"
       style="font-size:50.8px;line-height:1.25;font-family:Helvetica;-inkscape-font-specification:Helvetica;stroke-width:0.264583">
      <path
         d="m 27.170794,26.585531 c -1.340041,2.853639 -2.406746,5.845899 -3.962549,8.588623 -1.355068,2.388848 -2.994221,-0.547842 -3.64813,-1.951722 -1.727281,-3.708309 -3.249557,-7.512437 -5.106374,-11.154454 -1.094874,-2.147518 -2.168798,0.416102 -2.018481,1.885155 0.261222,2.552926 -0.748746,5.333802 0.243396,7.72356 0.602828,1.452023 4.103647,2.185705 2.289782,4.111377 -1.737032,1.844103 -4.676081,1.569937 -7.04332,1.560055 -1.8686985,-0.0078 -4.3762522,0.02373 -5.4223918,-1.782232 C 1.032248,33.02739 5.2177963,33.180781 5.5023492,31.040686 6.1179962,26.410463 6.3157894,21.732819 6.3898919,17.071092 6.431426,14.458218 7.0400357,11.507689 5.6728815,9.2129483 4.7409232,7.648675 1.0507405,6.7973135 2.934289,4.4682767 4.3656388,2.6983907 6.9602239,2.7932782 9.0451563,2.5722684 11.317571,2.3313848 13.948788,2.0005579 15.915667,3.2877286 c 1.483074,0.9705577 1.906673,2.9545392 2.785463,4.4689039 1.734178,2.9884025 2.895409,6.3552285 5.046617,9.0558515 1.119945,1.405977 2.391084,-0.82379 2.933559,-1.910531 1.619341,-3.244027 3.279213,-6.4712693 4.994251,-9.6627932 1.011638,-1.8825617 3.147767,-2.6101368 5.162864,-2.6723174 2.635916,-0.081338 5.620836,-0.3819861 7.874325,1.1832611 2.365929,1.6433469 -0.244893,3.6214689 -1.332089,5.2178984 -1.365528,2.0051311 -0.944477,4.7441041 -1.033876,7.1343511 -0.183418,4.904013 -0.233202,9.892697 0.73622,14.712377 0.345462,1.717535 3.681684,2.074957 2.621545,4.264856 -0.93664,1.934791 -3.500633,2.138867 -5.413623,2.22622 -3.433723,0.156794 -7.023445,0.344178 -10.323788,-0.809834 -2.333363,-0.815894 -1.289649,-3.170508 0.329049,-4.378996 1.658985,-1.238565 0.996323,-3.876438 1.107491,-5.803134 0.08053,-1.395704 0.290556,-6.004915 -1.972554,-3.946658 -1.183439,1.076316 -1.585428,2.781139 -2.260327,4.218347 z"
         style="font-family:'Cooper Black';-inkscape-font-specification:'Cooper Black, '"
         id="path4672"
         sodipodi:nodetypes="sssssssssssssssssssssssssssssss" />
    </g>
  </g>
</svg>
