<?xml version="1.0" encoding="UTF-8" standalone="no"?>
<!-- Created with Inkscape (http://www.inkscape.org/) -->

<svg
   width="210mm"
   height="297mm"
   viewBox="0 0 210 297"
   version="1.1"
   id="svg4208"
   inkscape:version="1.1.1 (3bf5ae0d25, 2021-09-20)"
   sodipodi:docname="CopperplateGothic_G.svg"
   xmlns:inkscape="http://www.inkscape.org/namespaces/inkscape"
   xmlns:sodipodi="http://sodipodi.sourceforge.net/DTD/sodipodi-0.dtd"
   xmlns="http://www.w3.org/2000/svg"
   xmlns:svg="http://www.w3.org/2000/svg">
  <sodipodi:namedview
     id="namedview4210"
     pagecolor="#505050"
     bordercolor="#eeeeee"
     borderopacity="1"
     inkscape:pageshadow="0"
     inkscape:pageopacity="0"
     inkscape:pagecheckerboard="0"
     inkscape:document-units="mm"
     showgrid="false"
     inkscape:zoom="1.4681257"
     inkscape:cx="227.16038"
     inkscape:cy="187.65423"
     inkscape:window-width="1920"
     inkscape:window-height="1009"
     inkscape:window-x="-8"
     inkscape:window-y="-8"
     inkscape:window-maximized="1"
     inkscape:current-layer="layer1" />
  <defs
     id="defs4205" />
  <g
     inkscape:label="Layer 1"
     inkscape:groupmode="layer"
     id="layer1">
    <g
       aria-label="G"
       id="text5415"
       style="font-size:50.8px;line-height:1.25;font-family:Helvetica;-inkscape-font-specification:Helvetica;stroke-width:0.264583">
      <path
         d="m 35.867142,29.992011 c 0,-2.906626 -8.720398,0.0217 -8.720398,0.0217 -0.913315,0.638007 -1.509824,2.559303 -2.218469,1.252874 v -7.574969 c 1.393094,-0.375833 0.951968,1.5875 2.788303,1.5875 H 43.5814 c 0.375813,1.395988 -2.209501,1.088898 -1.612305,2.813107 0.0138,2.365775 -0.02803,4.73322 0.0217,7.097916 -0.154383,1.262438 2.883052,1.451995 0.988118,2.408428 C 35.705281,41.711823 27.016162,43.91299 18.706738,42.124302 12.684516,40.827958 7.1531349,36.413554 5.597267,30.313913 4.1514342,24.645655 5.0500759,18.021234 9.2471227,13.7006 13.42655,9.2073049 19.801003,7.5918422 25.760954,7.7196384 c 4.303589,-0.048975 8.41592,1.3470961 12.395436,2.8291186 1.032484,0.694657 3.430256,-1.1731866 2.824283,0.06527 l -3.922906,8.01744 c -1.489149,-0.351144 -0.679004,-1.998537 -2.23609,-2.710449 -3.413647,-1.560746 -7.133092,-2.599823 -10.869699,-2.427222 -4.980856,0.230075 -9.888624,3.614606 -11.0657,8.588526 -1.107709,4.290029 0.0583,9.318327 3.681897,12.089427 4.150254,3.353472 10.023266,3.471537 14.924235,2.112613 1.442741,-0.400038 4.374732,-0.591794 4.374732,-2.095907 0,-1.398814 0,-4.196441 0,-4.196441 z"
         style="font-family:'Copperplate Gothic Bold';-inkscape-font-specification:'Copperplate Gothic Bold, '"
         id="path14887"
         sodipodi:nodetypes="ssccscccssssssscssssssss" />
    </g>
  </g>
</svg>
