<?xml version="1.0" encoding="UTF-8" standalone="no"?>
<!-- Created with Inkscape (http://www.inkscape.org/) -->

<svg
   width="210mm"
   height="297mm"
   viewBox="0 0 210 297"
   version="1.1"
   id="svg2294"
   inkscape:version="1.1.1 (3bf5ae0d25, 2021-09-20)"
   sodipodi:docname="CopperBlack_M.svg"
   xmlns:inkscape="http://www.inkscape.org/namespaces/inkscape"
   xmlns:sodipodi="http://sodipodi.sourceforge.net/DTD/sodipodi-0.dtd"
   xmlns="http://www.w3.org/2000/svg"
   xmlns:svg="http://www.w3.org/2000/svg">
  <sodipodi:namedview
     id="namedview2296"
     pagecolor="#505050"
     bordercolor="#eeeeee"
     borderopacity="1"
     inkscape:pageshadow="0"
     inkscape:pageopacity="0"
     inkscape:pagecheckerboard="0"
     inkscape:document-units="mm"
     showgrid="false"
     inkscape:zoom="2.9362514"
     inkscape:cx="147.29665"
     inkscape:cy="93.486545"
     inkscape:window-width="1920"
     inkscape:window-height="1009"
     inkscape:window-x="-8"
     inkscape:window-y="-8"
     inkscape:window-maximized="1"
     inkscape:current-layer="layer1" />
  <defs
     id="defs2291" />
  <g
     inkscape:label="Layer 1"
     inkscape:groupmode="layer"
     id="layer1">
    <g
       aria-label="M"
       id="text11559"
       style="font-size:50.8px;line-height:1.25;font-family:Helvetica;-inkscape-font-specification:Helvetica;stroke-width:0.264583">
      <path
         d="m 25.638934,27.216308 c -1.421165,2.982172 -2.523923,6.137181 -4.229249,8.971284 -2.196706,1.671225 -3.251681,-2.26284 -4.060815,-3.709369 -1.636056,-3.33245 -2.916848,-6.8398 -4.651823,-10.118942 -1.808925,-1.452629 -2.061516,2.001293 -1.814729,3.190288 -0.07233,2.251887 -0.263822,4.544018 0.259729,6.759757 1.239897,1.050714 4.158334,2.750675 1.930319,4.40444 -2.267855,1.533338 -5.173998,1.213819 -7.7718822,1.207966 C 3.4180859,38.057549 -0.2298915,36.852501 1.0398546,34.424448 3.2023368,33.400541 4.5423051,31.604968 4.309078,29.110919 4.7635538,23.780537 4.9306078,18.416718 4.8232475,13.068919 4.7953582,11.13838 4.1921546,9.1834745 2.2467264,8.3932476 -0.60148842,6.9249476 1.7857822,3.6089776 4.2489035,3.6462491 7.5813622,3.2149176 11.187289,2.516777 14.383384,3.9195951 c 1.686726,1.7475614 2.43465,4.1456357 3.721559,6.1721969 1.333567,2.470438 2.613771,4.973948 4.110944,7.351469 1.828525,1.218763 2.747545,-1.591673 3.4038,-2.815377 1.655165,-3.133273 3.118917,-6.3782597 4.948158,-9.4132131 1.941296,-2.3820377 5.278331,-2.0455218 8.032289,-2.0590382 1.934427,0.1429568 4.359706,0.3999708 5.434115,2.2434482 0.841314,2.4159172 -2.364511,3.3617513 -2.622345,5.4804631 -0.772952,3.813668 -0.612094,7.744528 -0.608506,11.616759 0.11162,3.088961 0.180673,6.236553 0.870717,9.249836 1.413894,1.298695 4.22553,3.358386 1.48843,5.079535 -2.71432,1.519876 -5.975861,1.047441 -8.966008,1.179121 -2.196826,-0.0754 -4.530867,-0.186157 -6.495072,-1.261117 -2.273154,-2.208154 1.469919,-3.694466 1.875134,-5.655739 0.319186,-2.416707 0.402248,-4.901055 0.226266,-7.33345 -0.732988,-2.818408 -3.070824,0.412517 -3.408472,1.82949 -0.255446,0.542431 -0.497931,1.090869 -0.755459,1.632329 z"
         style="font-family:'Cooper Black';-inkscape-font-specification:'Cooper Black, '"
         id="path15549"
         sodipodi:nodetypes="sssssssssssssssssssssssssssssss" />
    </g>
  </g>
</svg>
