<?xml version="1.0" encoding="UTF-8" standalone="no"?>
<!-- Created with Inkscape (http://www.inkscape.org/) -->

<svg
   width="210mm"
   height="297mm"
   viewBox="0 0 210 297"
   version="1.1"
   id="svg1380"
   inkscape:version="1.1.1 (3bf5ae0d25, 2021-09-20)"
   sodipodi:docname="curve_S1.svg"
   xmlns:inkscape="http://www.inkscape.org/namespaces/inkscape"
   xmlns:sodipodi="http://sodipodi.sourceforge.net/DTD/sodipodi-0.dtd"
   xmlns="http://www.w3.org/2000/svg"
   xmlns:svg="http://www.w3.org/2000/svg">
  <sodipodi:namedview
     id="namedview1382"
     pagecolor="#505050"
     bordercolor="#eeeeee"
     borderopacity="1"
     inkscape:pageshadow="0"
     inkscape:pageopacity="0"
     inkscape:pagecheckerboard="0"
     inkscape:document-units="mm"
     showgrid="false"
     inkscape:zoom="1.0381217"
     inkscape:cx="302.95101"
     inkscape:cy="247.08087"
     inkscape:window-width="1920"
     inkscape:window-height="1009"
     inkscape:window-x="-8"
     inkscape:window-y="-8"
     inkscape:window-maximized="1"
     inkscape:current-layer="layer1" />
  <defs
     id="defs1377" />
  <g
     inkscape:label="Layer 1"
     inkscape:groupmode="layer"
     id="layer1">
    <path
       id="path1463-8"
       style="fill:#241c1c;stroke-width:2.22792"
       d="m 95.702958,3.0123658 c -16.568542,0 -30.000236,13.4316942 -30.000236,30.0002362 0,16.568541 13.431694,29.999717 30.000236,29.999717 5.522842,0 9.999902,4.47706 9.999902,9.999909 0,5.522846 -4.47706,9.999906 -9.999902,9.999906 -5.522848,0 -10.000424,4.477575 -10.000424,10.000421 0,5.522849 4.477576,9.999905 10.000424,9.999905 16.568542,0 29.999712,-13.431691 29.999712,-30.000232 0,-16.568542 -13.43117,-29.99972 -29.999712,-29.99972 -5.522848,0 -10.000424,-4.47706 -10.000424,-9.999906 0,-5.522848 4.477576,-10.000423 10.000424,-10.000423 5.522842,0 9.999902,-4.47706 9.999902,-9.999907 0,-5.5228472 -4.47706,-9.9999062 -9.999902,-9.9999062 z"
       sodipodi:nodetypes="sssssssssssss" />
  </g>
</svg>
