<?xml version="1.0" encoding="UTF-8" standalone="no"?>
<!-- Created with Inkscape (http://www.inkscape.org/) -->

<svg
   width="210mm"
   height="297mm"
   viewBox="0 0 210 297"
   version="1.1"
   id="svg65698"
   inkscape:version="1.1.1 (3bf5ae0d25, 2021-09-20)"
   sodipodi:docname="cutting5.svg"
   xmlns:inkscape="http://www.inkscape.org/namespaces/inkscape"
   xmlns:sodipodi="http://sodipodi.sourceforge.net/DTD/sodipodi-0.dtd"
   xmlns="http://www.w3.org/2000/svg"
   xmlns:svg="http://www.w3.org/2000/svg">
  <sodipodi:namedview
     id="namedview65700"
     pagecolor="#505050"
     bordercolor="#eeeeee"
     borderopacity="1"
     inkscape:pageshadow="0"
     inkscape:pageopacity="0"
     inkscape:pagecheckerboard="0"
     inkscape:document-units="mm"
     showgrid="false"
     inkscape:zoom="0.125"
     inkscape:cx="3132"
     inkscape:cy="1196"
     inkscape:window-width="1920"
     inkscape:window-height="1009"
     inkscape:window-x="-8"
     inkscape:window-y="-8"
     inkscape:window-maximized="1"
     inkscape:current-layer="path65903" />
  <defs
     id="defs65695" />
  <g
     inkscape:label="Layer 1"
     inkscape:groupmode="layer"
     id="layer1">
    <g
       id="path65903"
       transform="translate(4.3252427,3.243932)">
      <path
         id="circle1029"
         style="fill:#008080;stroke-width:3.88694"
         d="M 159.55078,9.2734375 C 134.50244,34.149466 120.41326,67.570121 120.96094,95.353516 89.931919,87.698714 49.294002,88.870226 27.162109,105.45898 c 13.951171,-0.96779 30.603398,1.14499 47.685547,6.69532 39.704234,12.90069 66.661284,39.45062 60.210934,59.30273 -6.45034,19.85212 -43.866067,25.48663 -83.570309,12.58594 -17.082147,-5.55033 -31.793838,-13.63004 -42.5117185,-22.61328 15.9208815,31.72879 43.3947315,54.94584 69.9355465,63.30859 -16.861303,27.15027 -28.307362,66.14784 -19.36914,92.32422 3.390724,-13.56742 10.544215,-28.75226 21.101562,-43.2832 24.538569,-33.77444 58.120589,-51.20678 75.007809,-38.9375 16.88722,12.26928 10.68506,49.59469 -13.85351,83.36914 -10.55735,14.53094 -22.787,26.02602 -34.64258,33.44336 35.08032,-5.3416 65.68419,-24.28219 81.82031,-46.94922 20.61838,24.42299 54.15894,47.36109 81.82032,46.94922 -11.85559,-7.41733 -24.08524,-18.91242 -34.64258,-33.44336 -24.53857,-33.77445 -30.74269,-71.09986 -13.85547,-83.36914 16.88722,-12.26928 50.46924,5.16501 75.00781,38.93945 10.55735,14.53095 17.71084,29.71383 21.10156,43.28125 5.76067,-35.01402 -2.79731,-69.97105 -19.36718,-92.32227 29.5992,-12.07372 61.77733,-36.86694 69.93554,-63.30859 -10.71788,8.98326 -25.42957,17.06295 -42.51172,22.61328 -39.70424,12.90069 -77.11997,7.26423 -83.57031,-12.58789 -6.45034,-19.85211 20.5067,-46.40204 60.21094,-59.30273 17.08215,-5.55033 33.73438,-7.66311 47.68555,-6.69532 C 319.25898,89.147961 283.38197,86.511961 256.99219,95.351562 254.82046,63.522308 240.94779,25.146276 218.40234,9.2734375 c 5.23158,12.9692885 8.36914,29.4586905 8.36914,47.4199215 0,41.747509 -16.92117,75.589841 -37.79492,75.589841 -20.87375,0 -37.79492,-33.842332 -37.79492,-75.589841 0,-17.961231 3.13757,-34.450633 8.36914,-47.4199215 z"
         transform="matrix(0.26458333,0,0,0.26458333,-4.3252427,-3.243932)"
         sodipodi:nodetypes="cccssscccssscccssscccssscccsssc" />
    </g>
  </g>
</svg>
