<?xml version="1.0" encoding="UTF-8" standalone="no"?>
<!-- Created with Inkscape (http://www.inkscape.org/) -->

<svg
   width="210mm"
   height="297mm"
   viewBox="0 0 210 297"
   version="1.1"
   id="svg5"
   inkscape:version="1.2.1 (9c6d41e410, 2022-07-14)"
   sodipodi:docname="disc_line.svg"
   xmlns:inkscape="http://www.inkscape.org/namespaces/inkscape"
   xmlns:sodipodi="http://sodipodi.sourceforge.net/DTD/sodipodi-0.dtd"
   xmlns="http://www.w3.org/2000/svg"
   xmlns:svg="http://www.w3.org/2000/svg">
  <sodipodi:namedview
     id="namedview7"
     pagecolor="#505050"
     bordercolor="#eeeeee"
     borderopacity="1"
     inkscape:pageshadow="0"
     inkscape:pageopacity="0"
     inkscape:pagecheckerboard="0"
     inkscape:document-units="mm"
     showgrid="false"
     inkscape:zoom="1.4681257"
     inkscape:cx="364.41021"
     inkscape:cy="181.1834"
     inkscape:window-width="1920"
     inkscape:window-height="1009"
     inkscape:window-x="-8"
     inkscape:window-y="-8"
     inkscape:window-maximized="1"
     inkscape:current-layer="layer1"
     inkscape:showpageshadow="2"
     inkscape:deskcolor="#505050" />
  <defs
     id="defs2" />
  <g
     inkscape:label="Layer 1"
     inkscape:groupmode="layer"
     id="layer1">
    <path
       id="path868"
       style="fill:#0000ff;stroke-width:16.4345"
       d="M 179.52734,0.23632812 C 103.12941,10.045638 41.800155,49.762792 14.850556,115.41819 c -22.0013326,53.60029 -18.3542366,111.3469 5.959991,159.73806 32.659504,-18.85612 65.318716,-37.71275 97.978513,-56.56836 4.51889,-2.60891 10.2969,-1.05965 12.90625,3.45899 2.60973,4.5193 1.06245,10.29879 -3.45703,12.9082 -32.654752,18.85385 -65.309895,37.70703 -97.964842,56.56054 34.831055,52.84118 106.225552,89.23219 158.703122,86.4375 69.23288,-3.687 124.4367,-33.96224 158.70313,-86.4375 -32.65495,-18.85351 -65.30969,-37.7074 -97.96485,-56.56054 -4.51978,-2.60945 -6.06839,-8.38839 -3.45898,-12.9082 2.60941,-4.51981 8.38846,-6.06852 12.9082,-3.45899 32.65939,18.85632 65.31901,37.71224 97.97852,56.56836 24.48207,-52.77791 27.21134,-109.65021 5.95999,-159.73806 C 334.75728,48.610455 261.1753,4.2326782 198.42578,0.23632812 c 0,37.71679688 7.6e-4,75.43359488 0,113.15039188 -1e-4,5.21799 -4.23123,9.44726 -9.44922,9.44726 -5.21799,0 -9.44912,-4.22927 -9.44922,-9.44726 -7.6e-4,-37.716797 0,-75.433595 0,-113.15039188 z"
       transform="scale(0.26458333)"
       sodipodi:nodetypes="cscssscscssscscsssc" />
  </g>
</svg>
