<?xml version="1.0" encoding="UTF-8" standalone="no"?>
<!-- Created with Inkscape (http://www.inkscape.org/) -->

<svg
   width="210mm"
   height="297mm"
   viewBox="0 0 210 297"
   version="1.1"
   id="svg5"
   inkscape:version="1.1.1 (3bf5ae0d25, 2021-09-20)"
   sodipodi:docname="empire_like.svg"
   xmlns:inkscape="http://www.inkscape.org/namespaces/inkscape"
   xmlns:sodipodi="http://sodipodi.sourceforge.net/DTD/sodipodi-0.dtd"
   xmlns="http://www.w3.org/2000/svg"
   xmlns:svg="http://www.w3.org/2000/svg">
  <sodipodi:namedview
     id="namedview7"
     pagecolor="#505050"
     bordercolor="#eeeeee"
     borderopacity="1"
     inkscape:pageshadow="0"
     inkscape:pageopacity="0"
     inkscape:pagecheckerboard="0"
     inkscape:document-units="mm"
     showgrid="false"
     inkscape:zoom="1.4681257"
     inkscape:cx="80.715159"
     inkscape:cy="254.40601"
     inkscape:window-width="1920"
     inkscape:window-height="1009"
     inkscape:window-x="-8"
     inkscape:window-y="-8"
     inkscape:window-maximized="1"
     inkscape:current-layer="layer1" />
  <defs
     id="defs2" />
  <g
     inkscape:label="Layer 1"
     inkscape:groupmode="layer"
     id="layer1">
    <path
       id="path869"
       style="fill:#008000;stroke-width:4.04481"
       d="m 188.97656,0 c -20.87348,1.9660984e-4 -37.79472,16.921445 -37.79492,37.794922 0.001,10.477035 4.35117,20.483531 12.01172,27.630859 4.34398,7.154212 6.86782,17.808074 6.88476,29.0625 -0.0101,8.053549 -1.30611,15.890119 -3.69921,22.367189 -10.62028,3.32803 -20.37464,8.96016 -28.56641,16.49414 -6.8055,-1.1676 -14.23889,-3.96427 -21.2168,-7.98242 C 106.85238,119.72064 98.886163,112.20196 94.867188,104.85938 92.505242,94.65681 86.016012,85.891573 76.947266,80.654297 58.870166,70.217684 35.755241,76.411337 25.318359,94.488281 14.881745,112.56538 21.075398,135.68031 39.152344,146.11719 c 9.073722,5.23688 19.914066,6.47256 29.933594,3.41211 8.368101,-0.18427 18.85655,2.95747 28.611328,8.57031 6.967584,4.03088 13.106804,9.06707 17.523434,14.375 -1.21542,5.41662 -1.83045,10.95064 -1.83398,16.50195 0.004,5.54935 0.61899,11.08139 1.83398,16.4961 -4.41402,5.30987 -10.55274,10.34894 -17.521481,14.38281 -9.761687,5.61498 -20.256343,8.75492 -28.625,8.56445 -10.01649,-3.05586 -20.851891,-1.81884 -29.921875,3.41602 -18.076941,10.43688 -24.270593,33.5518 -13.833985,51.6289 10.43688,18.07695 33.551805,24.2706 51.628907,13.83399 9.072511,-5.23997 15.562903,-14.01077 17.921875,-24.21875 4.023569,-7.33923 11.988219,-14.85209 21.726559,-20.49414 6.97501,-4.0182 14.40613,-6.81616 21.21094,-7.98633 8.19802,7.54141 17.96145,13.17778 28.5918,16.50586 2.38605,6.47923 3.67584,14.31243 3.68164,22.35937 -0.0184,11.26172 -2.54682,21.92042 -6.89649,29.07227 -7.65446,7.14671 -12.00063,17.14893 -12.00195,27.62109 2e-4,20.87348 16.92144,37.79472 37.79492,37.79492 20.87348,-2e-4 37.79472,-16.92144 37.79492,-37.79492 -0.001,-10.47703 -4.35117,-20.48353 -12.01171,-27.63086 -4.34398,-7.15421 -6.86783,-17.80807 -6.88477,-29.0625 0.004,-8.04562 1.29182,-15.8787 3.67578,-22.35937 10.63018,-3.32751 20.39359,-8.9632 28.5918,-16.50391 6.80538,1.16872 14.23801,3.96605 21.21484,7.98438 9.74333,5.64655 17.70954,13.16522 21.72852,20.50781 2.36195,10.20257 8.85118,18.9678 17.91992,24.20508 18.0771,10.43661 41.19203,4.24296 51.62891,-13.83399 10.43661,-18.0771 4.24295,-41.19202 -13.83399,-51.6289 -9.07425,-5.23743 -19.91543,-6.47313 -29.93555,-3.41211 -8.3681,0.18427 -18.85655,-2.95747 -28.61132,-8.57031 -6.96705,-4.0311 -13.10556,-9.06726 -17.52149,-14.375 1.21542,-5.41662 1.83046,-10.95065 1.83399,-16.50196 -0.002,-5.55109 -0.61468,-11.08511 -1.82813,-16.50195 4.41336,-5.30767 10.54979,-10.34449 17.51563,-14.37695 9.76168,-5.61498 20.25634,-8.75493 28.625,-8.56446 10.01649,3.05586 20.85189,1.81884 29.92187,-3.41601 18.07695,-10.43688 24.2706,-33.55181 13.83399,-51.628909 -10.43688,-18.076946 -33.55181,-24.270599 -51.62891,-13.833984 -9.07325,5.239562 -15.5644,14.010421 -17.92383,24.218753 -4.02433,7.33878 -11.98887,14.85082 -21.72656,20.49218 -6.97056,4.01635 -14.39714,6.81414 -21.19922,7.98633 -8.19537,-7.53947 -17.95533,-13.17509 -28.58203,-16.5039 -2.39301,-6.47443 -3.68972,-14.30806 -3.70117,-22.359379 0.0184,-11.261713 2.54681,-21.920409 6.89648,-29.072265 7.65446,-7.146711 12.00063,-17.148931 12.00195,-27.621094 C 226.77128,16.921445 209.85004,1.9660984e-4 188.97656,0 Z"
       transform="scale(0.26458333)"
       sodipodi:nodetypes="ccccccccccccccccccccccccccccccccccccccccccccccccccccccccc" />
  </g>
</svg>
