<?xml version="1.0" encoding="UTF-8" standalone="no"?>
<!-- Created with Inkscape (http://www.inkscape.org/) -->

<svg
   width="210mm"
   height="297mm"
   viewBox="0 0 210 297"
   version="1.1"
   id="svg5"
   inkscape:version="1.1.1 (3bf5ae0d25, 2021-09-20)"
   sodipodi:docname="letterJ.svg"
   xmlns:inkscape="http://www.inkscape.org/namespaces/inkscape"
   xmlns:sodipodi="http://sodipodi.sourceforge.net/DTD/sodipodi-0.dtd"
   xmlns="http://www.w3.org/2000/svg"
   xmlns:svg="http://www.w3.org/2000/svg">
  <sodipodi:namedview
     id="namedview7"
     pagecolor="#505050"
     bordercolor="#eeeeee"
     borderopacity="1"
     inkscape:pageshadow="0"
     inkscape:pageopacity="0"
     inkscape:pagecheckerboard="0"
     inkscape:document-units="mm"
     showgrid="false"
     inkscape:zoom="2.0762433"
     inkscape:cx="191.93319"
     inkscape:cy="30.102445"
     inkscape:window-width="1920"
     inkscape:window-height="1009"
     inkscape:window-x="-8"
     inkscape:window-y="-8"
     inkscape:window-maximized="1"
     inkscape:current-layer="layer1" />
  <defs
     id="defs2" />
  <g
     inkscape:label="Layer 1"
     inkscape:groupmode="layer"
     id="layer1">
    <g
       aria-label="J"
       id="text2234"
       style="font-size:50.8px;line-height:1.25;font-family:Helvetica;-inkscape-font-specification:Helvetica;stroke-width:0.264583">
      <path
         d="m 24.431931,2.2333936 c 1.852083,0 3.73724,0.1653646 5.655469,0.4960938 1.570963,0.2645833 2.695442,0.6283853 3.373437,1.0914062 0.677995,0.4630208 1.016992,1.0996744 1.016992,1.9099609 0,0.5126302 -0.124023,0.9177734 -0.37207,1.2154297 -0.248047,0.2811197 -0.785482,0.6283853 -1.612305,1.0417968 -0.959114,0.4960937 -1.513085,1.083138 -1.661914,1.7611328 -0.132291,0.6614582 -0.256315,3.2576822 -0.37207,7.7886722 -0.04961,4.382161 -0.09922,7.011458 -0.148828,7.88789 -0.03307,0.876432 -0.132292,1.72806 -0.297656,2.554883 -0.479557,2.414323 -1.44694,4.307747 -2.902149,5.680273 -1.190625,1.124479 -2.720247,2.00918 -4.588867,2.654102 -1.868619,0.644922 -3.836458,0.967383 -5.903515,0.967383 -1.835547,0 -3.679363,-0.239779 -5.531446,-0.719336 C 9.2514625,36.083524 7.6556944,35.422065 6.2997049,34.578706 5.1752258,33.884175 4.282257,32.949865 3.6207987,31.775776 2.9593404,30.585151 2.6286112,29.320112 2.6286112,27.980659 c 0,-1.653646 0.5208984,-3.017904 1.5626953,-4.092774 1.0417969,-1.091406 2.348177,-1.637109 3.9191405,-1.637109 1.5378907,0 2.844271,0.454753 3.919141,1.364258 1.074869,0.926041 1.612304,2.067057 1.612304,3.423047 0,0.347265 -0.09922,0.926041 -0.297656,1.736328 -0.03307,0.165365 -0.04961,0.347266 -0.04961,0.545703 0,0.529167 0.190169,0.959115 0.570507,1.289844 0.380339,0.330729 0.884701,0.496093 1.513086,0.496093 1.107943,0 2.000912,-0.496094 2.678907,-1.488281 0.677995,-0.992187 1.016992,-2.298567 1.016992,-3.91914 -0.0083,-0.752409 -0.01654,-1.504818 -0.02481,-2.257227 -0.01654,-2.025716 -0.03307,-4.051432 -0.04961,-6.077148 -0.148823,-3.68763 -0.264576,-5.853906 -0.347259,-6.498828 C 18.586293,10.203966 18.404392,9.6665315 18.106736,9.2531201 17.858689,8.9223909 17.635447,8.7074169 17.437009,8.6081982 17.255108,8.5089795 16.742478,8.3518831 15.899119,8.1369091 15.502244,8.0542268 15.163246,7.8227164 14.882127,7.4423779 c -0.28112,-0.3803385 -0.42168,-0.7854818 -0.42168,-1.2154297 0,-0.8929687 0.347266,-1.6040364 1.041797,-2.1332031 0.711067,-0.5457031 1.860351,-0.9839192 3.447851,-1.3146484 1.769401,-0.3638021 3.59668,-0.5457031 5.481836,-0.5457031 z"
         style="font-family:'Cooper Black';-inkscape-font-specification:'Cooper Black, '"
         id="path14904"
         sodipodi:nodetypes="scsscccccccsscccscscscsssscccccccssccs" />
    </g>
    <text
       xml:space="preserve"
       style="font-size:50.8px;line-height:1.25;font-family:Helvetica;-inkscape-font-specification:Helvetica;stroke-width:0.264583"
       x="-3.69558"
       y="98.888542"
       id="text16426"><tspan
         sodipodi:role="line"
         id="tspan16424"
         style="font-style:normal;font-variant:normal;font-weight:normal;font-stretch:normal;font-size:50.8px;font-family:'Snap ITC';-inkscape-font-specification:'Snap ITC';stroke-width:0.264583"
         x="-3.69558"
         y="98.888542">J</tspan></text>
    <text
       xml:space="preserve"
       style="font-size:50.8px;line-height:1.25;font-family:Helvetica;-inkscape-font-specification:Helvetica;stroke-width:0.264583"
       x="-26.888512"
       y="-1.6566386"
       id="text25420"><tspan
         sodipodi:role="line"
         id="tspan25418"
         style="font-style:normal;font-variant:normal;font-weight:normal;font-stretch:normal;font-size:50.8px;font-family:Magneto;-inkscape-font-specification:Magneto;stroke-width:0.264583"
         x="-26.888512"
         y="-1.6566386">J</tspan></text>
    <text
       xml:space="preserve"
       style="font-size:50.8px;line-height:1.25;font-family:Helvetica;-inkscape-font-specification:Helvetica;stroke-width:0.264583"
       x="101.56464"
       y="8.6654902"
       id="text37412"><tspan
         sodipodi:role="line"
         id="tspan37410"
         style="font-style:normal;font-variant:normal;font-weight:normal;font-stretch:normal;font-size:50.8px;font-family:'Modern No. 20';-inkscape-font-specification:'Modern No. 20, ';stroke-width:0.264583"
         x="101.56464"
         y="8.6654902">J</tspan></text>
    <text
       xml:space="preserve"
       style="font-size:50.8px;line-height:1.25;font-family:Helvetica;-inkscape-font-specification:Helvetica;stroke-width:0.264583"
       x="-26.589033"
       y="65.689796"
       id="text16426-1"><tspan
         sodipodi:role="line"
         id="tspan16424-1"
         style="font-style:normal;font-variant:normal;font-weight:normal;font-stretch:normal;font-size:50.8px;font-family:monospace;-inkscape-font-specification:monospace;stroke-width:0.264583"
         x="-26.589033"
         y="65.689796">J</tspan></text>
    <text
       xml:space="preserve"
       style="font-size:50.8px;line-height:1.25;font-family:Helvetica;-inkscape-font-specification:Helvetica;stroke-width:0.264583"
       x="104.36819"
       y="52.24781"
       id="text43839"><tspan
         sodipodi:role="line"
         id="tspan43837"
         style="font-style:normal;font-variant:normal;font-weight:normal;font-stretch:normal;font-size:50.8px;font-family:'Monotype Corsiva';-inkscape-font-specification:'Monotype Corsiva';stroke-width:0.264583"
         x="104.36819"
         y="52.24781">J</tspan></text>
    <text
       xml:space="preserve"
       style="font-size:50.8px;line-height:1.25;font-family:Helvetica;-inkscape-font-specification:Helvetica;stroke-width:0.264583"
       x="13.890271"
       y="-5.6070814"
       id="text47321"><tspan
         sodipodi:role="line"
         id="tspan47319"
         style="font-style:normal;font-variant:normal;font-weight:normal;font-stretch:normal;font-size:50.8px;font-family:'OCR A Extended';-inkscape-font-specification:'OCR A Extended';stroke-width:0.264583"
         x="13.890271"
         y="-5.6070814">J</tspan></text>
    <text
       xml:space="preserve"
       style="font-size:50.8px;line-height:1.25;font-family:Helvetica;-inkscape-font-specification:Helvetica;stroke-width:0.264583"
       x="81.175255"
       y="-8.4106245"
       id="text54711"><tspan
         sodipodi:role="line"
         id="tspan54709"
         style="font-style:normal;font-variant:normal;font-weight:normal;font-stretch:normal;font-size:50.8px;font-family:'Rockwell Extra Bold';-inkscape-font-specification:'Rockwell Extra Bold, ';stroke-width:0.264583"
         x="81.175255"
         y="-8.4106245">J</tspan></text>
    <text
       xml:space="preserve"
       style="font-size:50.8px;line-height:1.25;font-family:Helvetica;-inkscape-font-specification:Helvetica;stroke-width:0.264583"
       x="39.886742"
       y="42.817722"
       id="text61219"><tspan
         sodipodi:role="line"
         id="tspan61217"
         style="font-style:normal;font-variant:normal;font-weight:normal;font-stretch:normal;font-size:50.8px;font-family:Stencil;-inkscape-font-specification:Stencil;stroke-width:0.264583"
         x="39.886742"
         y="42.817722">J</tspan></text>
  </g>
</svg>
