<?xml version="1.0" encoding="UTF-8" standalone="no"?>
<!-- Created with Inkscape (http://www.inkscape.org/) -->

<svg
   width="210mm"
   height="297mm"
   viewBox="0 0 210 297"
   version="1.1"
   id="svg9222"
   inkscape:version="1.1.1 (3bf5ae0d25, 2021-09-20)"
   sodipodi:docname="letterG.svg"
   xmlns:inkscape="http://www.inkscape.org/namespaces/inkscape"
   xmlns:sodipodi="http://sodipodi.sourceforge.net/DTD/sodipodi-0.dtd"
   xmlns="http://www.w3.org/2000/svg"
   xmlns:svg="http://www.w3.org/2000/svg">
  <sodipodi:namedview
     id="namedview9224"
     pagecolor="#505050"
     bordercolor="#eeeeee"
     borderopacity="1"
     inkscape:pageshadow="0"
     inkscape:pageopacity="0"
     inkscape:pagecheckerboard="0"
     inkscape:document-units="mm"
     showgrid="false"
     inkscape:zoom="1.4681257"
     inkscape:cx="151.55378"
     inkscape:cy="133.84413"
     inkscape:window-width="1920"
     inkscape:window-height="1009"
     inkscape:window-x="-8"
     inkscape:window-y="-8"
     inkscape:window-maximized="1"
     inkscape:current-layer="layer1" />
  <defs
     id="defs9219" />
  <g
     inkscape:label="Layer 1"
     inkscape:groupmode="layer"
     id="layer1">
    <g
       aria-label="G"
       id="text6125"
       style="font-size:50.8px;line-height:1.25;font-family:Helvetica;-inkscape-font-specification:Helvetica;stroke-width:0.264583">
      <path
         d="m 26.11587,5.3698156 c 2.166276,0 4.2099,0.3016407 6.126757,0.9177734 0.861283,0.276841 1.44694,0.4216797 1.761133,0.4216797 0.330729,0 1.023106,-0.196218 2.083594,-0.5705078 0.345181,-0.1218288 0.702799,-0.1736328 1.066601,-0.1736328 0.926042,0 1.810382,0.5459822 2.654102,1.6371093 1.355628,1.7531436 2.033984,3.6710936 2.033984,5.7546876 0,1.422135 -0.368731,2.56735 -1.091406,3.447851 -0.71602,0.872392 -1.653646,1.314649 -2.827734,1.314649 -0.959115,0 -1.903215,-0.345241 -2.827735,-1.041797 -0.282651,-0.212956 -0.967382,-0.992188 -2.058789,-2.331641 -1.81901,-2.232421 -3.910872,-3.348632 -6.275586,-3.348632 -2.149739,0 -3.866272,0.781435 -5.13457,2.356445 -1.261793,1.566932 -1.885156,3.68763 -1.885156,6.35 0,3.952213 0.995274,7.327199 3.026172,10.095507 0.747315,1.018662 1.666605,1.82524 2.728515,2.43086 1.054793,0.601562 2.108399,0.892968 3.150196,0.892968 0.859895,0 1.562571,-0.281239 2.108398,-0.843359 0.562116,-0.578896 0.843359,-1.314648 0.843359,-2.207617 0,-0.79375 -0.232312,-1.35487 -0.694531,-1.686719 -0.182708,-0.131175 -0.356742,-0.197322 -0.520898,-0.223242 -0.150593,-0.02378 -0.620117,-0.04961 -1.413867,-0.04961 -0.711068,0 -1.314424,-0.214757 -1.785938,-0.669727 -0.471214,-0.45468 -0.694531,-1.041797 -0.694531,-1.736328 0,-1.372526 0.90837,-2.351756 2.728515,-2.926953 1.999784,-0.631966 4.307748,-0.942578 6.920508,-0.942578 2.794661,0 5.144801,0.282979 7.044531,0.868164 1.804458,0.555838 2.703711,1.579231 2.703711,3.050976 0,0.595313 -0.20256,1.120086 -0.620117,1.562696 -0.409303,0.433861 -0.951546,0.680844 -1.612305,0.768945 -0.579523,0.07727 -0.959114,0.214974 -1.141015,0.396875 -0.165365,0.165365 -0.337919,0.587335 -0.520899,1.265039 -0.709989,2.629588 -2.097147,4.832136 -4.167187,6.598047 -1.41916,1.210658 -3.142771,2.147234 -5.159375,2.827734 -2.001758,0.67549 -4.10931,1.016992 -6.325195,1.016992 -3.621485,0 -6.942693,-0.839846 -9.971484,-2.505273 -3.106242,-1.708015 -5.470599,-4.08608 -7.094141,-7.14375 -1.3530224,-2.548192 -2.0339843,-5.299935 -2.0339843,-8.259961 0,-2.993099 0.8174186,-5.833094 2.4308593,-8.532812 1.726934,-2.889623 4.130106,-5.1179447 7.218164,-6.6972657 2.699727,-1.3807174 5.771224,-2.0835934 9.227344,-2.0835927 z"
         style="font-family:'Cooper Black';-inkscape-font-specification:'Cooper Black, '"
         id="path12897"
         sodipodi:nodetypes="sssssssssssssssssssssssssssssssssssssssss" />
    </g>
    <text
       xml:space="preserve"
       style="font-size:50.8px;line-height:1.25;font-family:Helvetica;-inkscape-font-specification:Helvetica;stroke-width:0.264583"
       x="49.199635"
       y="58.570988"
       id="text14089"><tspan
         sodipodi:role="line"
         id="tspan14087"
         style="font-style:normal;font-variant:normal;font-weight:normal;font-stretch:normal;font-size:50.8px;font-family:'Harlow Solid Italic';-inkscape-font-specification:'Harlow Solid Italic, ';stroke-width:0.264583"
         x="49.199635"
         y="58.570988">G</tspan></text>
    <text
       xml:space="preserve"
       style="font-size:50.8px;line-height:1.25;font-family:Helvetica;-inkscape-font-specification:Helvetica;stroke-width:0.264583"
       x="100.20145"
       y="18.382275"
       id="text17791"><tspan
         sodipodi:role="line"
         id="tspan17789"
         style="font-style:normal;font-variant:normal;font-weight:normal;font-stretch:normal;font-size:50.8px;font-family:'Berlin Sans FB Demi';-inkscape-font-specification:'Berlin Sans FB Demi';stroke-width:0.264583"
         x="100.20145"
         y="18.382275">G</tspan></text>
    <text
       xml:space="preserve"
       style="font-size:50.8px;line-height:1.25;font-family:Helvetica;-inkscape-font-specification:Helvetica;stroke-width:0.264583"
       x="105.78822"
       y="64.878632"
       id="text23513"><tspan
         sodipodi:role="line"
         id="tspan23511"
         style="font-style:normal;font-variant:normal;font-weight:normal;font-stretch:normal;font-size:50.8px;font-family:'Franklin Gothic Demi';-inkscape-font-specification:'Franklin Gothic Demi';stroke-width:0.264583"
         x="105.78822"
         y="64.878632">G</tspan></text>
    <text
       xml:space="preserve"
       style="font-size:50.8px;line-height:1.25;font-family:Helvetica;-inkscape-font-specification:Helvetica;stroke-width:0.264583"
       x="-42.531555"
       y="28.834944"
       id="text25497"><tspan
         sodipodi:role="line"
         id="tspan25495"
         style="font-style:normal;font-variant:normal;font-weight:normal;font-stretch:normal;font-size:50.8px;font-family:'Franklin Gothic Medium';-inkscape-font-specification:'Franklin Gothic Medium, ';stroke-width:0.264583"
         x="-42.531555"
         y="28.834944">G</tspan></text>
  </g>
</svg>
