<?xml version="1.0" encoding="UTF-8" standalone="no"?>
<!-- Created with Inkscape (http://www.inkscape.org/) -->

<svg
   width="210mm"
   height="297mm"
   viewBox="0 0 210 297"
   version="1.1"
   id="svg5"
   inkscape:version="1.1.1 (3bf5ae0d25, 2021-09-20)"
   sodipodi:docname="letterJ_01.svg"
   xmlns:inkscape="http://www.inkscape.org/namespaces/inkscape"
   xmlns:sodipodi="http://sodipodi.sourceforge.net/DTD/sodipodi-0.dtd"
   xmlns="http://www.w3.org/2000/svg"
   xmlns:svg="http://www.w3.org/2000/svg">
  <sodipodi:namedview
     id="namedview7"
     pagecolor="#505050"
     bordercolor="#eeeeee"
     borderopacity="1"
     inkscape:pageshadow="0"
     inkscape:pageopacity="0"
     inkscape:pagecheckerboard="0"
     inkscape:document-units="mm"
     showgrid="false"
     inkscape:zoom="2.9362514"
     inkscape:cx="19.923362"
     inkscape:cy="54.661532"
     inkscape:window-width="1920"
     inkscape:window-height="1009"
     inkscape:window-x="-8"
     inkscape:window-y="-8"
     inkscape:window-maximized="1"
     inkscape:current-layer="layer1" />
  <defs
     id="defs2" />
  <g
     inkscape:label="Layer 1"
     inkscape:groupmode="layer"
     id="layer1">
    <g
       aria-label="J"
       id="text2234"
       style="font-size:50.8px;line-height:1.25;font-family:Helvetica;-inkscape-font-specification:Helvetica;stroke-width:0.264583">
      <path
         d="m 24.431931,2.2333936 c 1.852083,0 3.736665,0.1687149 5.655469,0.4960938 1.570395,0.2679347 2.695442,0.6283853 3.373437,1.0914062 0.677995,0.4630208 1.016992,1.0996744 1.016992,1.9099609 0,0.5126302 -0.119913,0.9212469 -0.37207,1.2154297 -0.243987,0.2846509 -0.788555,0.6222946 -1.612305,1.0417968 -0.962229,0.4900242 -1.519337,1.0817958 -1.661914,1.7611328 -0.138555,0.6601742 -0.287994,3.2569832 -0.37207,7.7886722 -0.08129,4.381688 -0.107469,7.01103 -0.148828,7.88789 -0.04132,0.876082 -0.133103,1.727898 -0.297656,2.554883 -0.480368,2.414162 -1.447353,4.30731 -2.902149,5.680273 -1.191038,1.124042 -2.720247,2.00918 -4.588867,2.654102 -1.868619,0.644922 -3.836458,0.967383 -5.903515,0.967383 -1.835547,0 -3.679886,-0.237764 -5.531446,-0.719336 C 9.2509375,36.085538 7.6568807,35.420155 6.2997049,34.578706 5.1764091,33.882263 4.2787371,32.951841 3.6207987,31.775776 2.9558146,30.587117 2.6286112,29.320112 2.6286112,27.980659 c 0,-1.653646 0.5250217,-3.013923 1.5626953,-4.092774 1.0459353,-1.087441 2.348177,-1.637109 3.9191405,-1.637109 1.5378907,0 2.848343,0.449962 3.919141,1.364258 1.078963,0.921268 1.612304,2.067057 1.612304,3.423047 0,0.347265 -0.105055,0.924634 -0.297656,1.736328 -0.03893,0.164083 -0.04961,0.347266 -0.04961,0.545703 0,0.529167 0.190169,0.959115 0.570507,1.289844 0.380339,0.330729 0.884701,0.496093 1.513086,0.496093 1.107943,0 2.000912,-0.496094 2.678907,-1.488281 0.677995,-0.992187 1.02266,-2.298577 1.016992,-3.91914 -0.0026,-0.75245 -0.01809,-1.504803 -0.02481,-2.257227 -0.01809,-2.025703 0.009,-4.052212 -0.04961,-6.077148 C 18.892924,13.675166 18.726037,11.511447 18.652439,10.865425 18.577193,10.204939 18.407988,9.6639184 18.106736,9.2531201 17.862259,8.9197429 17.633707,8.7108231 17.437009,8.6081982 17.253308,8.5123541 16.745413,8.3400199 15.899119,8.1369091 15.504917,8.0423005 15.163246,7.8227164 14.882127,7.4423779 c -0.28112,-0.3803385 -0.42168,-0.7854818 -0.42168,-1.2154297 0,-0.8929687 0.348204,-1.6028079 1.041797,-2.1332031 0.712007,-0.5444762 1.859897,-0.9861062 3.447851,-1.3146484 1.76895,-0.3659896 3.59668,-0.5457031 5.481836,-0.5457031 z"
         style="font-family:'Cooper Black';-inkscape-font-specification:'Cooper Black, '"
         id="path14904"
         sodipodi:nodetypes="ssssssssssssssssssssssssssssssssssssss" />
    </g>
  </g>
</svg>
